<?xml version="1.0" encoding="UTF-8"?>
<svg id="logo" xmlns="http://www.w3.org/2000/svg" version="1.1" viewBox="61 76 280 280">
  <defs>
    <style>
      .st0 {
        fill: none;
        stroke: #e2e8f0;
        stroke-miterlimit: 8;
        stroke-width: 1.4;
      }
    </style>
  </defs>
  <line class="st0" x1="110" y1="200" x2="290" y2="200"/>
  <path class="st0" d="M140,186l60-58,60,58"/>
  <line class="st0" x1="127" y1="186" x2="153" y2="186"/>
  <line class="st0" x1="247" y1="186" x2="273" y2="186"/>
  <path class="st0" d="M140,214l60,58,60-58"/>
  <line class="st0" x1="170" y1="243" x2="230" y2="243"/>
  <g transform="translate(91.31, 300)" fill="#e2e8f0">
    <path d="M15.48 0L3.52 0Q2.86 0 2.31-0.32Q1.76-0.64 1.44-1.19Q1.12-1.74 1.12-2.40L1.12-2.40L1.12-12Q1.12-12.66 1.44-13.21Q1.76-13.76 2.31-14.08Q2.86-14.40 3.52-14.40L3.52-14.40L15.48-14.40L15.48-12.78L3.52-12.78Q3.20-12.78 2.97-12.55Q2.74-12.32 2.74-12L2.74-12L2.74-2.40Q2.74-2.08 2.97-1.85Q3.20-1.62 3.52-1.62L3.52-1.62L15.48-1.62L15.48 0ZM29.30 0L19.90 0Q19.24 0 18.69-0.33Q18.14-0.66 17.81-1.21Q17.48-1.76 17.48-2.42L17.48-2.42L17.48-6.62L27.64-6.62L27.64-9.18Q27.64-9.50 27.41-9.73Q27.18-9.96 26.86-9.96L26.86-9.96L17.48-9.96L17.48-11.60L26.86-11.60Q27.54-11.60 28.09-11.27Q28.64-10.94 28.97-10.39Q29.30-9.84 29.30-9.18L29.30-9.18L29.30 0ZM19.90-1.64L19.90-1.64L27.64-1.64L27.64-4.98L19.12-4.98L19.12-2.42Q19.12-2.10 19.35-1.87Q19.58-1.64 19.90-1.64ZM33.58 0L33.58 0Q32.92 0 32.37-0.33Q31.82-0.66 31.49-1.21Q31.16-1.76 31.16-2.42L31.16-2.42L31.16-15.40L32.80-15.40L32.80-2.42Q32.80-2.10 33.03-1.87Q33.26-1.64 33.58-1.64L33.58-1.64L35.54-1.64L35.54 0L33.58 0ZM39.60 0L39.60 0Q38.94 0 38.39-0.33Q37.84-0.66 37.51-1.21Q37.18-1.76 37.18-2.42L37.18-2.42L37.18-9.18Q37.18-9.84 37.51-10.39Q37.84-10.94 38.39-11.27Q38.94-11.60 39.60-11.60L39.60-11.60L48.96-11.60L48.96-9.96L39.60-9.96Q39.28-9.96 39.05-9.73Q38.82-9.50 38.82-9.18L38.82-9.18L38.82-2.42Q38.82-2.10 39.05-1.87Q39.28-1.64 39.60-1.64L39.60-1.64L49-1.64L49 0L39.60 0ZM53.14 0L53.14 0Q52.48 0 51.93-0.33Q51.38-0.66 51.05-1.21Q50.72-1.76 50.72-2.42L50.72-2.42L50.72-11.60L52.36-11.60L52.36-2.42Q52.36-2.10 52.59-1.87Q52.82-1.64 53.14-1.64L53.14-1.64L60.10-1.64Q60.42-1.64 60.66-1.87Q60.90-2.10 60.90-2.42L60.90-2.42L60.90-11.60L62.54-11.60L62.54-2.42Q62.54-1.76 62.21-1.21Q61.88-0.66 61.33-0.33Q60.78 0 60.10 0L60.10 0L53.14 0ZM67.02 0L67.02 0Q66.36 0 65.81-0.33Q65.26-0.66 64.93-1.21Q64.60-1.76 64.60-2.42L64.60-2.42L64.60-15.40L66.24-15.40L66.24-2.42Q66.24-2.10 66.47-1.87Q66.70-1.64 67.02-1.64L67.02-1.64L68.98-1.64L68.98 0L67.02 0ZM73.08 0L73.08 0Q72.42 0 71.87-0.33Q71.32-0.66 70.99-1.21Q70.66-1.76 70.66-2.42L70.66-2.42L70.66-11.60L72.30-11.60L72.30-2.42Q72.30-2.10 72.53-1.87Q72.76-1.64 73.08-1.64L73.08-1.64L80.04-1.64Q80.36-1.64 80.60-1.87Q80.84-2.10 80.84-2.42L80.84-2.42L80.84-11.60L82.48-11.60L82.48-2.42Q82.48-1.76 82.15-1.21Q81.82-0.66 81.27-0.33Q80.72 0 80.04 0L80.04 0L73.08 0ZM86.58 0L86.58 0Q85.92 0 85.37-0.33Q84.82-0.66 84.49-1.21Q84.16-1.76 84.16-2.42L84.16-2.42L84.16-2.58L85.80-2.58L85.80-2.42Q85.80-2.10 86.03-1.87Q86.26-1.64 86.58-1.64L86.58-1.64L93.54-1.64Q93.86-1.64 94.09-1.87Q94.32-2.10 94.32-2.42L94.32-2.42L94.32-4.20Q94.32-4.52 94.09-4.75Q93.86-4.98 93.54-4.98L93.54-4.98L86.58-4.98Q85.92-4.98 85.37-5.31Q84.82-5.64 84.49-6.19Q84.16-6.74 84.16-7.40L84.16-7.40L84.16-9.18Q84.16-9.84 84.49-10.39Q84.82-10.94 85.37-11.27Q85.92-11.60 86.58-11.60L86.58-11.60L93.54-11.60Q94.22-11.60 94.77-11.27Q95.32-10.94 95.65-10.39Q95.98-9.84 95.98-9.18L95.98-9.18L95.98-9.02L94.32-9.02L94.32-9.18Q94.32-9.50 94.09-9.73Q93.86-9.96 93.54-9.96L93.54-9.96L86.58-9.96Q86.26-9.96 86.03-9.73Q85.80-9.50 85.80-9.18L85.80-9.18L85.80-7.40Q85.80-7.08 86.03-6.85Q86.26-6.62 86.58-6.62L86.58-6.62L93.54-6.62Q94.22-6.62 94.77-6.29Q95.32-5.96 95.65-5.41Q95.98-4.86 95.98-4.20L95.98-4.20L95.98-2.42Q95.98-1.76 95.65-1.21Q95.32-0.66 94.77-0.33Q94.22 0 93.54 0L93.54 0L86.58 0ZM115.38 0L105.78 0Q105.12 0 104.57-0.32Q104.02-0.64 103.70-1.19Q103.38-1.74 103.38-2.40L103.38-2.40L103.38-2.96L105.00-2.96L105.00-2.40Q105.00-2.08 105.23-1.85Q105.46-1.62 105.78-1.62L105.78-1.62L115.38-1.62Q115.70-1.62 115.93-1.85Q116.16-2.08 116.16-2.40L116.16-2.40L116.16-5.62Q116.16-5.94 115.93-6.16Q115.70-6.38 115.38-6.38L115.38-6.38L105.78-6.38Q105.12-6.38 104.57-6.71Q104.02-7.04 103.70-7.58Q103.38-8.12 103.38-8.78L103.38-8.78L103.38-12Q103.38-12.66 103.70-13.21Q104.02-13.76 104.57-14.08Q105.12-14.40 105.78-14.40L105.78-14.40L115.38-14.40Q116.04-14.40 116.59-14.08Q117.14-13.76 117.46-13.21Q117.78-12.66 117.78-12L117.78-12L117.78-11.44L116.16-11.44L116.16-12Q116.16-12.32 115.93-12.55Q115.70-12.78 115.38-12.78L115.38-12.78L105.78-12.78Q105.46-12.78 105.23-12.55Q105.00-12.32 105.00-12L105.00-12L105.00-8.78Q105.00-8.46 105.23-8.24Q105.46-8.02 105.78-8.02L105.78-8.02L115.38-8.02Q116.04-8.02 116.59-7.69Q117.14-7.36 117.46-6.82Q117.78-6.28 117.78-5.62L117.78-5.62L117.78-2.40Q117.78-1.74 117.46-1.19Q117.14-0.64 116.59-0.32Q116.04 0 115.38 0L115.38 0ZM121.48 0L119.84 0L119.84 0L119.84-11.60L121.48-11.60L121.48 0ZM121.48-13.76L119.84-13.76L119.84-13.76L119.84-15.40L121.48-15.40L121.48-13.76ZM125.38 0L123.74 0L123.74 0L123.74-11.60L133.14-11.60Q133.80-11.60 134.35-11.27Q134.90-10.94 135.23-10.39Q135.56-9.84 135.56-9.18L135.56-9.18L135.56 0L133.92 0L133.92-9.18Q133.92-9.50 133.69-9.73Q133.46-9.96 133.14-9.96L133.14-9.96L126.18-9.96Q125.86-9.96 125.62-9.73Q125.38-9.50 125.38-9.18L125.38-9.18L125.38 0ZM146.78 4.58L139.54 4.58L139.54 4.58L139.54 2.92L146.78 2.92Q147.10 2.92 147.33 2.69Q147.56 2.46 147.56 2.14L147.56 2.14L147.56 0L139.82 0Q139.16 0 138.61-0.33Q138.06-0.66 137.73-1.21Q137.40-1.76 137.40-2.42L137.40-2.42L137.40-9.18Q137.40-9.84 137.73-10.39Q138.06-10.94 138.61-11.27Q139.16-11.60 139.82-11.60L139.82-11.60L146.78-11.60Q147.46-11.60 148.01-11.27Q148.56-10.94 148.88-10.39Q149.20-9.84 149.20-9.18L149.20-9.18L149.20 2.14Q149.20 2.82 148.88 3.37Q148.56 3.92 148.01 4.25Q147.46 4.58 146.78 4.58L146.78 4.58ZM139.82-1.64L139.82-1.64L146.78-1.64Q147.10-1.64 147.33-1.87Q147.56-2.10 147.56-2.42L147.56-2.42L147.56-9.18Q147.56-9.50 147.33-9.73Q147.10-9.96 146.78-9.96L146.78-9.96L139.82-9.96Q139.50-9.96 139.27-9.73Q139.04-9.50 139.04-9.18L139.04-9.18L139.04-2.42Q139.04-2.10 139.27-1.87Q139.50-1.64 139.82-1.64ZM153.22 0L153.22 0Q152.56 0 152.01-0.33Q151.46-0.66 151.13-1.21Q150.80-1.76 150.80-2.42L150.80-2.42L150.80-11.60L152.44-11.60L152.44-2.42Q152.44-2.10 152.67-1.87Q152.90-1.64 153.22-1.64L153.22-1.64L160.18-1.64Q160.50-1.64 160.74-1.87Q160.98-2.10 160.98-2.42L160.98-2.42L160.98-11.60L162.62-11.60L162.62-2.42Q162.62-1.76 162.29-1.21Q161.96-0.66 161.41-0.33Q160.86 0 160.18 0L160.18 0L153.22 0ZM167.10 0L167.10 0Q166.44 0 165.89-0.33Q165.34-0.66 165.01-1.21Q164.68-1.76 164.68-2.42L164.68-2.42L164.68-15.40L166.32-15.40L166.32-2.42Q166.32-2.10 166.55-1.87Q166.78-1.64 167.10-1.64L167.10-1.64L169.06-1.64L169.06 0L167.10 0ZM182.34 0L172.94 0Q172.28 0 171.73-0.33Q171.18-0.66 170.85-1.21Q170.52-1.76 170.52-2.42L170.52-2.42L170.52-6.62L180.68-6.62L180.68-9.18Q180.68-9.50 180.45-9.73Q180.22-9.96 179.90-9.96L179.90-9.96L170.52-9.96L170.52-11.60L179.90-11.60Q180.58-11.60 181.13-11.27Q181.68-10.94 182.01-10.39Q182.34-9.84 182.34-9.18L182.34-9.18L182.34 0ZM172.94-1.64L172.94-1.64L180.68-1.64L180.68-4.98L172.16-4.98L172.16-2.42Q172.16-2.10 172.39-1.87Q172.62-1.64 172.94-1.64ZM185.94 0L184.30 0L184.30 0L184.30-9.18Q184.30-9.84 184.63-10.39Q184.96-10.94 185.51-11.27Q186.06-11.60 186.72-11.60L186.72-11.60L193.24-11.60L193.24-9.96L186.72-9.96Q186.40-9.96 186.17-9.73Q185.94-9.50 185.94-9.18L185.94-9.18L185.94 0ZM196.18 0L194.54 0L194.54 0L194.54-11.60L196.18-11.60L196.18 0ZM196.18-13.76L194.54-13.76L194.54-13.76L194.54-15.40L196.18-15.40L196.18-13.76ZM201.14 0L201.14 0Q200.46 0 199.91-0.33Q199.36-0.66 199.04-1.21Q198.72-1.76 198.72-2.42L198.72-2.42L198.72-15.40L200.36-15.40L200.36-11.60L205.38-11.60L205.38-9.96L200.36-9.96L200.36-2.42Q200.36-2.10 200.59-1.87Q200.82-1.64 201.14-1.64L201.14-1.64L205.38-1.64L205.38 0L201.14 0ZM216.08 4.60L208.84 4.60L208.84 4.60L208.84 2.94L216.08 2.94Q216.40 2.94 216.63 2.71Q216.86 2.48 216.86 2.16L216.86 2.16L216.86 0L209.12 0Q208.46 0 207.91-0.33Q207.36-0.66 207.03-1.21Q206.70-1.76 206.70-2.42L206.70-2.42L206.70-11.56L208.34-11.56L208.34-2.42Q208.34-2.10 208.57-1.87Q208.80-1.64 209.12-1.64L209.12-1.64L216.08-1.64Q216.40-1.64 216.63-1.87Q216.86-2.10 216.86-2.42L216.86-2.42L216.86-11.56L218.50-11.56L218.50 2.16Q218.50 2.84 218.18 3.39Q217.86 3.94 217.31 4.27Q216.76 4.60 216.08 4.60L216.08 4.60Z"/>
  </g>
</svg>
